# xmcd
#
# Track frame offsets: 
#        150
#        20549
#        38352
#        51304
#        62758
#        76399
#        93489
#        105960
#        120600
#        133593
#        146175
#
# Disc length: 2257 seconds
#
# Revision: 0
# Processed by: cddbd v1.5.2PL0 Copyright (c) Steve Scherf et al.
# Submitted via: ExactAudioCopyFreeDBPlugin 1.0
#
DISCID=8e08cf0b
DTITLE=Paladins - New World
DYEAR=2017
DGENRE=Blues
TTITLE0=New World
TTITLE1=Waterman
TTITLE2=Things Keep Changin'
TTITLE3=Mar Solitar
TTITLE4=If You were Only Mine
TTITLE5=Wicked
TTITLE6=Shaould Have Been Dreamin'
TTITLE7=I Know When I'm Not Wanted
TTITLE8=magic Touch
TTITLE9=Without Love
TTITLE10=No Pain Anymore
EXTD=
EXTT0=
EXTT1=
EXTT2=
EXTT3=
EXTT4=
EXTT5=
EXTT6=
EXTT7=
EXTT8=
EXTT9=
EXTT10=
PLAYORDER=
